# xmcd
#
# Track frame offsets:
#	150
#	13846
#	31813
#	47235
#	63837
#	78042
#	96667
#	114162
#	131149
#	150496
#	171461
#	185712
#	204046
#	218476
#	237117
#	250730
#	263516
#
# Disc length: 3797 seconds
#
# Revision: 1
# Processed by: cddbd v1.5.2PL0 Copyright (c) Steve Scherf et al.
# Submitted via: audiograbber 1.83.01
#
DISCID=d90ed311
DTITLE=Various Artist - TexMix 2008 Fall
DYEAR=2008
DGENRE=Country
TTITLE0=Jay Boy Adams and The Roadhouse Scholars w Bill Worrell and Big John Holida
TTITLE0=y - Are You Voting For The D
TTITLE1=J. R. Castillo - Dancehall Romance
TTITLE2=Joe Allison and This Machine - Say Goodbye
TTITLE3=Carrie Rodriguez - She Ain't Me
TTITLE4=Sam Silva and The Good - Jim Marshall
TTITLE5=Brent Adair - Time Away
TTITLE6=April Geesbreght - Tell All The Angels
TTITLE7=The Agave Posse Band - Mended Heart
TTITLE8=Five Times August - Beautiful Girls
TTITLE9=Todd Phelps - You Can Call Me Daddy Tonight
TTITLE10=Stewert Mann and the Statesboro Revue - Lady
TTITLE11=Sara Hickman - Learn You Like A Book
TTITLE12=Eli Young Band - Enough Is Enough
TTITLE13=Jennifer Leonhardt - Here Comes Trouble
TTITLE14=Johnny Cash - Folsom Prison Blues (remix)
TTITLE15=The Derailers - Bad, Bad Girl
TTITLE16=Randy McAllister - Distance
EXTD=From Texas Music Magazine\nSubmitted by Larry@LosSenderosStudio.com
EXTT0=
EXTT1=
EXTT2=
EXTT3=
EXTT4=
EXTT5=
EXTT6=
EXTT7=
EXTT8=
EXTT9=
EXTT10=
EXTT11=
EXTT12=
EXTT13=
EXTT14=
EXTT15=
EXTT16=
PLAYORDER=
